# xmcd
#
# Track frame offsets:
#	150
#	20545
#	39462
#	59070
#	80747
#	102310
#	134382
#	154035
#	179110
#	200837
#	218235
#	241330
#
# Disc length: 3513 seconds
#
# Revision: 1
# Processed by: cddbd v1.5.1PL2 Copyright (c) Steve Scherf et al.
# Submitted via: EasyCDDAExtractor 9.1.1.5
#
DISCID=b50db70c
DTITLE=Gage - Soul Rebel
DYEAR=2005
DGENRE=R&B
TTITLE0=N'Arrête Pas
TTITLE1=Ce Soir
TTITLE2=Trop Fresh
TTITLE3=Je T'Aime Quand Même
TTITLE4=Demain
TTITLE5=Pense A Moi
TTITLE6=L'Homme D'Une Femme
TTITLE7=Viens Me Voir
TTITLE8=Te Quiero
TTITLE9=Dis-Moi
TTITLE10=Le Départ
TTITLE11=Viens Me Voir (Version Acoustique)
EXTD=YEAR: 2005
EXTT0=
EXTT1=
EXTT2=
EXTT3=
EXTT4=
EXTT5=
EXTT6=
EXTT7=
EXTT8=
EXTT9=
EXTT10=
EXTT11=
PLAYORDER=
